<?xml version="1.0" encoding="utf-8"?>
<!-- Generator: Adobe Illustrator 19.0.0, SVG Export Plug-In . SVG Version: 6.00 Build 0)  -->
<svg version="1.1" id="Layer_1" xmlns="http://www.w3.org/2000/svg" xmlns:xlink="http://www.w3.org/1999/xlink" x="0px" y="0px"
	 width="1544px" height="500px" viewBox="644 -122 1544 500" enable-background="new 644 -122 1544 500" xml:space="preserve">
<g id="XMLID_1_">
	<polygon id="XMLID_11_" fill="#E14562" points="644,-122 644,378 778.4,378 1278.4,-122 	"/>
	<polygon id="XMLID_10_" fill="#49C49F" points="776.9,378 1484,378 1984,-122 1276.9,-122 	"/>
	<polygon id="XMLID_8_" fill="#DFAA3A" points="2188,378 2188,-122 1981,-122 1481,378 	"/>
</g>
<g id="XMLID_41_">
	<g id="XMLID_2_">
		<path id="XMLID_4_" fill="#FFFFFF" d="M959.5,2.9c-0.1-14.8-3.1-25.8-6.7-36.6c-2.9-8.9-6.6-17.5-12.5-24.9
			c-7.7-9.8-18.1-13.6-30.2-13.3c-8.4,0.2-16.5,1.9-24.5,4.2c-10.5,3-20.7,6.5-29.9,12.7c-9.2,6.3-14.9,14.7-16,26
			c-0.8,8,0.3,15.8,2.1,23.5c3,12.5,6.8,24.8,13.6,35.9c7.4,11.9,18.3,18.1,32.2,17.6c7.3-0.3,14.6-1.6,21.7-3.2
			c11.5-2.7,22.6-6.5,32.6-12.9C953.8,24.4,959.8,13.7,959.5,2.9z M933.2-1.5c-1.2,0.4-2.4,0.8-3.6,1.2c-1.1,0.4-2.3,0.8-3.6,1.2
			c0.8,2.6,1.7,5,2.4,7.5c1.2,3.8-0.3,7.2-3.7,8.4c-3.3,1.1-6.6-0.6-7.9-4.2c-0.9-2.5-1.7-5-2.6-7.7c-5.3,1.8-10.5,3.5-15.9,5.3
			c0.8,2.5,1.6,4.9,2.4,7.3c1.3,4-0.2,7.5-3.7,8.6c-3.5,1.2-6.7-0.6-8.1-4.6c-0.8-2.3-1.6-4.5-2.3-6.8c0-0.1-0.2-0.2-0.4-0.4
			c-2.5,0.8-4.9,1.7-7.5,2.4c-3.6,1.1-6.9-0.6-8-4c-1-3.3,0.7-6.5,4.2-7.7c2.4-0.9,4.8-1.7,7.5-2.6c-1.7-5.1-3.4-10.1-5.1-15.4
			c-2.6,0.8-5,1.7-7.4,2.4c-3.8,1.2-7.1-0.4-8.3-3.9c-1.1-3.4,0.7-6.6,4.3-7.9c2.4-0.8,4.8-1.6,7.3-2.5c-0.9-2.8-1.8-5.3-2.6-7.9
			c-1.1-3.5,0.4-6.7,3.8-7.9c3.2-1.2,6.6,0.4,7.9,3.9c1,2.5,1.8,5.1,2.8,8c5.3-1.8,10.5-3.5,16-5.3c-1-2.9-1.9-5.6-2.7-8.4
			c-0.9-3.1,0.9-6.4,4-7.5c3-1,6.3,0.4,7.6,3.3c0.5,1.1,0.8,2.3,1.2,3.4c0.6,1.7,1.1,3.3,1.8,5.3c2.7-0.9,5.2-1.7,7.7-2.5
			c3.5-1.1,6.7,0.5,7.9,3.9c1.1,3.1-0.4,6.5-3.7,7.8c-2.5,1-5.1,1.8-7.9,2.7c1.7,5.1,3.4,10.1,5.2,15.3c2.6-0.8,4.9-1.6,7.3-2.3
			c3.8-1.2,7.1,0.2,8.4,3.7C938.8-6.2,937-2.9,933.2-1.5z"/>
		<path id="XMLID_3_" fill="#FFFFFF" d="M888.9-17c1.8,5.2,3.5,10.2,5.2,15.4c5.4-1.8,10.6-3.6,16-5.4c-1.8-5.2-3.4-10.2-5.2-15.4
			C899.5-20.5,894.3-18.8,888.9-17z"/>
	</g>
	<g id="XMLID_31_">
		<path id="XMLID_32_" fill="#FFFFFF" d="M822.9-12c0,0.9-0.3,1.6-1,2.3l-27.3,27.3c-0.6,0.6-1.4,1-2.3,1c-0.9,0-1.6-0.3-2.3-1
			c-0.6-0.6-1-1.4-1-2.3V0.8h-22.5c-0.9,0-1.6-0.3-2.3-1c-0.6-0.6-1-1.4-1-2.3v-19.3c0-0.9,0.3-1.6,1-2.3c0.6-0.6,1.4-1,2.3-1H789
			v-14.2c0-0.9,0.3-1.6,1-2.3c0.6-0.6,1.4-1,2.3-1c0.9,0,1.6,0.3,2.3,1l27.3,27.3C822.6-13.6,822.9-12.9,822.9-12z"/>
		<path id="XMLID_39_" fill="#FFFFFF" d="M776,16.9h-17h-57c-0.4,0-0.8-0.2-1.1-0.5c-0.3-0.3-0.5-0.7-0.5-1.1v-38.6
			c1.1,1.2,2.2,2.3,3.5,3.3c9,6.9,16.1,12.6,21.4,17c1.7,1.4,3.1,2.6,4.2,3.4s2.5,1.6,4.3,2.4s3.5,1.2,5.1,1.2h0.1h0.1
			c1.6,0,3.3-0.4,5.1-1.2c1.8-0.8,3.3-1.6,4.3-2.4c1.1-0.8,2.5-1.9,4.2-3.4c1.9-1.6,4-3.3,6.3-5.1v-8.1c-2.9,2.3-5.9,4.7-8.9,7.1
			c-0.2,0.2-0.8,0.7-1.8,1.5s-1.7,1.4-2.3,1.9c-0.6,0.4-1.3,1-2.2,1.6c-0.9,0.6-1.8,1.1-2.5,1.4c-0.8,0.3-1.5,0.5-2.2,0.5H739h-0.1
			c-0.7,0-1.4-0.2-2.2-0.5s-1.6-0.8-2.5-1.4c-0.9-0.6-1.7-1.1-2.2-1.6c-0.6-0.4-1.3-1.1-2.3-1.9s-1.6-1.3-1.8-1.5
			c-7-5.5-13.7-10.8-20.1-15.9c-4.9-3.9-7.4-8.6-7.4-14.3c0-0.4,0.2-0.8,0.5-1.1c0.3-0.3,0.7-0.5,1.1-0.5h57h17h7.9
			c-0.3-1.5-1-2.9-2.2-4.1c-1.6-1.6-3.5-2.4-5.7-2.4h-74c-2.2,0-4.1,0.8-5.7,2.4c-1.6,1.6-2.4,3.5-2.4,5.7v54.6
			c0,2.2,0.8,4.1,2.4,5.7c1.6,1.6,3.5,2.4,5.7,2.4h74c2.2,0,4.1-0.8,5.7-2.4c1.2-1.2,1.9-2.5,2.2-4.1L776,16.9L776,16.9z"/>
	</g>
</g>
<g id="XMLID_38_">
	<g id="XMLID_33_">
		<g id="XMLID_112_">
			<g id="XMLID_113_">
				<path id="XMLID_40_" fill="#FFFFFF" d="M2049.4,260.3l27.5,13.5v27.3l-27.5,16.6l-27.5-16.5v-27.5L2049.4,260.3 M2049.4,258.5
					l-0.7,0.4l-27.5,13.4l-0.9,0.4v1v27.5v0.9l0.8,0.5l27.5,16.5l0.8,0.5l0.8-0.5l27.5-16.6l0.8-0.5v-0.9v-27.3v-1l-0.9-0.5
					l-27.5-13.5L2049.4,258.5L2049.4,258.5z"/>
			</g>
		</g>
		<g id="XMLID_34_">
			<path id="XMLID_111_" fill="#FFFFFF" d="M2049.4,297.7l-5.8-7.9c2.6-0.9,4.6-2,5.8-3.4v-8.6c-1.2-1.2-3.2-1.9-5.9-1.9h-11.2v26.3
				h3.4v-23.5h7.5c2.8,0,4.2,1.2,4.2,3.6c0,3.1-2.5,5-7.5,5.8v2.2l8.4,11.8h1.2v-4.4H2049.4z"/>
			<g id="XMLID_35_">
				<path id="XMLID_102_" fill="#FFFFFF" d="M2066.3,275.8l-11.8,12.4l12.1,13.9h-4.7l-10.7-12.6v-2.1l10.9-11.6L2066.3,275.8
					L2066.3,275.8z"/>
				<g id="XMLID_42_">
					<path id="XMLID_66_" fill="#FFFFFF" d="M2049.4,286.3c1-1.2,1.6-2.6,1.6-4.2c0-1.9-0.5-3.4-1.6-4.4V286.3z"/>
					<polygon id="XMLID_43_" fill="#FFFFFF" points="2049.4,297.7 2049.4,302.1 2052.6,302.1 					"/>
				</g>
			</g>
		</g>
	</g>
	
		<text id="XMLID_37_" transform="matrix(1 0 0 1 1953.5061 357.9996)" fill="#FFFFFF" font-family="'Sansation-Regular'" font-size="24.6907px">RHEINARDKORF</text>
</g>
</svg>
