<?xml version="1.0" encoding="utf-8"?>
<!-- Generator: Adobe Illustrator 19.0.0, SVG Export Plug-In . SVG Version: 6.00 Build 0)  -->
<svg version="1.1" id="Layer_1" xmlns="http://www.w3.org/2000/svg" xmlns:xlink="http://www.w3.org/1999/xlink" x="0px" y="0px"
	 width="256px" height="256px" viewBox="0 0 256 256" enable-background="new 0 0 256 256" xml:space="preserve">
<g id="XMLID_5_">
	<defs>
		<rect id="XMLID_4_" width="256" height="256"/>
	</defs>
	<clipPath id="XMLID_13_">
		<use xlink:href="#XMLID_4_"  overflow="visible"/>
	</clipPath>
	<g id="XMLID_3_" clip-path="url(#XMLID_13_)">
		
			<rect id="XMLID_1_" x="-134.5" y="-25" transform="matrix(-0.7071 0.7071 -0.7071 -0.7071 312.7699 135.8519)" fill="#E14562" width="525.4" height="315.4"/>
		
			<rect id="XMLID_10_" x="-256.7" y="-4.6" transform="matrix(-0.7071 0.7071 -0.7071 -0.7071 17.7473 13.6496)" fill="#49C49F" width="525.4" height="30.2"/>
		
			<rect id="XMLID_11_" x="-15" y="240.9" transform="matrix(-0.7071 0.7071 -0.7071 -0.7071 601.2488 255.3438)" fill="#DFAA3A" width="525.4" height="22.5"/>
	</g>
</g>
<g id="XMLID_41_">
	<g id="XMLID_2_">
		<path id="XMLID_7_" fill="#FFFFFF" d="M239.9,140.5c-0.1-12.4-2.6-21.6-5.6-30.7c-2.5-7.5-5.5-14.6-10.4-20.9
			c-6.5-8.2-15.1-11.4-25.3-11.1c-7,0.2-13.8,1.6-20.5,3.6c-8.8,2.5-17.4,5.5-25,10.6c-7.7,5.2-12.5,12.3-13.4,21.8
			c-0.7,6.7,0.2,13.2,1.8,19.7c2.5,10.5,5.7,20.8,11.4,30c6.2,10,15.3,15.1,27,14.7c6.1-0.2,12.2-1.3,18.2-2.7
			c9.6-2.2,18.9-5.4,27.3-10.8C235.2,158.4,240.2,149.6,239.9,140.5z M217.9,136.8c-1,0.4-2,0.7-3,1c-0.9,0.3-1.9,0.6-3,1
			c0.7,2.2,1.4,4.2,2,6.3c1,3.2-0.3,6-3.1,7c-2.8,0.9-5.5-0.5-6.7-3.5c-0.8-2.1-1.4-4.1-2.2-6.4c-4.5,1.5-8.8,2.9-13.3,4.5
			c0.7,2.1,1.4,4.1,2,6.1c1.1,3.4-0.1,6.3-3.1,7.2c-3,1-5.6-0.5-6.8-3.9c-0.7-1.9-1.3-3.8-2-5.7c0-0.1-0.2-0.2-0.3-0.3
			c-2.1,0.7-4.1,1.4-6.2,2c-3,0.9-5.8-0.5-6.7-3.4c-0.9-2.7,0.6-5.4,3.5-6.5c2-0.7,4-1.4,6.3-2.2c-1.4-4.3-2.8-8.5-4.3-12.9
			c-2.2,0.7-4.2,1.4-6.2,2c-3.2,1-6-0.3-6.9-3.3c-0.9-2.8,0.6-5.5,3.6-6.6c2-0.7,4-1.4,6.1-2.1c-0.8-2.3-1.5-4.5-2.2-6.6
			c-0.9-3,0.4-5.6,3.2-6.6c2.7-1,5.5,0.3,6.6,3.2c0.8,2.1,1.5,4.3,2.3,6.7c4.4-1.5,8.8-2.9,13.4-4.4c-0.8-2.4-1.6-4.7-2.3-7.1
			c-0.8-2.6,0.8-5.4,3.3-6.3c2.5-0.9,5.3,0.3,6.4,2.7c0.4,0.9,0.7,1.9,1,2.8c0.5,1.4,1,2.8,1.5,4.4c2.3-0.7,4.4-1.5,6.4-2.1
			c2.9-0.9,5.6,0.4,6.6,3.2c0.9,2.6-0.3,5.4-3.1,6.5c-2.1,0.8-4.3,1.5-6.6,2.3c1.4,4.3,2.8,8.5,4.3,12.8c2.2-0.7,4.1-1.3,6.1-2
			c3.2-1,6,0.2,7,3.1C222.6,132.8,221,135.6,217.9,136.8z"/>
		<path id="XMLID_6_" fill="#FFFFFF" d="M180.8,123.8c1.5,4.4,2.9,8.6,4.4,12.9c4.6-1.5,8.9-3,13.4-4.5c-1.5-4.4-2.9-8.5-4.3-12.9
			C189.7,120.9,185.3,122.3,180.8,123.8z"/>
	</g>
	<g id="XMLID_31_">
		<path id="XMLID_32_" fill="#FFFFFF" d="M125.5,128c0,0.7-0.3,1.4-0.8,1.9l-22.9,22.9c-0.5,0.5-1.2,0.8-1.9,0.8
			c-0.7,0-1.4-0.3-1.9-0.8c-0.5-0.5-0.8-1.2-0.8-1.9v-12.1H78.4c-0.7,0-1.4-0.3-1.9-0.8c-0.5-0.5-0.8-1.2-0.8-1.9v-16.1
			c0-0.7,0.3-1.4,0.8-1.9c0.5-0.5,1.2-0.8,1.9-0.8h18.8v-12.1c0-0.7,0.3-1.4,0.8-1.9c0.5-0.5,1.2-0.8,1.9-0.8c0.7,0,1.4,0.3,1.9,0.8
			l22.9,22.9C125.3,126.6,125.5,127.3,125.5,128z"/>
		<path id="XMLID_39_" fill="#FFFFFF" d="M86.2,152.2H72H24.3c-0.4,0-0.7-0.1-0.9-0.4c-0.3-0.3-0.4-0.6-0.4-0.9v-32.3
			c0.9,1,1.9,1.9,2.9,2.8c7.5,5.8,13.5,10.5,17.9,14.2c1.4,1.2,2.6,2.1,3.5,2.8c0.9,0.7,2.1,1.4,3.6,2c1.5,0.7,3,1,4.3,1h0h0
			c1.3,0,2.8-0.3,4.3-1c1.5-0.7,2.7-1.4,3.6-2c0.9-0.7,2.1-1.6,3.5-2.8c1.6-1.3,3.3-2.7,5.3-4.3v-6.8c-2.5,1.9-5,3.9-7.5,5.9
			c-0.2,0.1-0.7,0.6-1.5,1.2c-0.8,0.7-1.5,1.2-1.9,1.6c-0.5,0.4-1.1,0.8-1.9,1.3c-0.8,0.5-1.5,0.9-2.1,1.2c-0.6,0.3-1.2,0.4-1.8,0.4
			h0h0c-0.6,0-1.2-0.1-1.8-0.4c-0.6-0.3-1.4-0.6-2.1-1.2c-0.8-0.5-1.4-1-1.9-1.3c-0.5-0.4-1.1-0.9-1.9-1.6c-0.8-0.7-1.3-1.1-1.5-1.2
			c-5.8-4.6-11.5-9.1-16.9-13.3c-4.1-3.3-6.2-7.2-6.2-11.9c0-0.4,0.1-0.7,0.4-0.9c0.3-0.3,0.6-0.4,0.9-0.4H72h14.2h6.6
			c-0.2-1.3-0.9-2.4-1.9-3.4c-1.3-1.3-2.9-2-4.8-2H24.3c-1.9,0-3.4,0.7-4.8,2c-1.3,1.3-2,2.9-2,4.8v45.8c0,1.9,0.7,3.4,2,4.8
			c1.3,1.3,2.9,2,4.8,2h61.9c1.9,0,3.4-0.7,4.8-2c1-1,1.6-2.1,1.9-3.4H86.2z"/>
	</g>
</g>
</svg>
